<?xml version="1.0" encoding="UTF-8"?>
<svg id="Layer_2" data-name="Layer 2" xmlns="http://www.w3.org/2000/svg" viewBox="0 0 580.71 731.53">
  <defs>
    <style>
      .cls-1 {
        fill: #fff;
      }
    </style>
  </defs>
  <g id="Layer_2-2" data-name="Layer 2">
    <g>
      <path class="cls-1" d="m198.41,151.24c-6.31,17.77-9.6,36.44-11.34,55.17s-2.14,37.77-2.22,56.65c-.04,8.93.53,18.54,6.06,25.96.47.64,1.56.02,1.08-.63-4.98-6.7-5.81-15.21-5.88-23.3-.08-9.07.19-18.17.45-27.24.53-18.7,1.68-37.45,5.05-55.87,1.89-10.32,4.49-20.52,8.01-30.41.27-.76-.94-1.09-1.21-.33h0Z"/>
      <path class="cls-1" d="m190.98,286.48c-.85,13.65,1.51,27.68,7.73,39.93,3.05,6.01,7.06,11.56,11.96,16.19,5.58,5.28,12.2,9.28,18.95,12.87,14.18,7.54,28.69,14.87,43.71,20.6,14.75,5.62,30.55,9.56,46.44,8.91,7.61-.31,15.21-1.73,22.21-4.79s12.84-7.67,18.03-13.04,9.54-11.09,13.75-17.04,7.91-11.8,11.4-17.97c6.99-12.34,12.74-25.38,17.22-38.84,4.49-13.48,7.69-27.39,9.58-41.47,1.89-14.07,2.46-28.31,1.67-42.49s-2.96-28.25-6.53-41.98c-.87-3.34-1.82-6.66-2.86-9.96-.24-.76-1.45-.44-1.21.33,4.19,13.37,7.03,27.15,8.5,41.09,1.45,13.79,1.57,27.72.43,41.54s-3.61,27.71-7.31,41.16c-3.72,13.51-8.69,26.68-14.9,39.25-6.16,12.48-13.52,24.37-22.02,35.38-4.54,5.89-9.47,11.58-15.31,16.23s-13.04,8.08-20.57,9.79c-15.24,3.45-31.44,1.13-46.24-3.25-15.36-4.55-29.84-11.56-44.1-18.76-13.33-6.73-27.21-13.32-36.34-25.63-8.15-10.99-12.27-24.62-13.01-38.19-.18-3.29-.15-6.58.05-9.87.05-.8-1.2-.8-1.25,0h0Z"/>
      <path class="cls-1" d="m299.57,89.54c.49,5.41-2.08,10.84-6.92,13.51s-10.52,2.19-15.76,2.5c-7.74.46-15.44,1.82-22.94,3.79-15.92,4.17-32.15,11.16-44.14,22.72-5.86,5.65-10.24,12.34-12.35,20.25-2.48,9.3-2.56,19.02-3.5,28.54-1.2,12.19-3.25,24.35-5.03,36.47s-3.64,24.09-5.59,36.12c-7.81,48.13-16.98,96.04-27.52,143.64-5.25,23.75-10.83,47.43-16.78,71.02-5.55,22.03-11.56,44.01-19.6,65.28-4.07,10.77-8.68,21.36-13.99,31.58s-11.49,19.35-16.63,29.36c-2.51,4.89-4.63,9.95-6.17,15.23s-2.67,10.89-4.17,16.29c-2.66,9.55-7.2,19.72-16.38,24.64-3.46,1.85-11.83,4.24-12.98-1.63-.15-.79-1.36-.45-1.21.33,1.61,8.18,13.42,3.66,17.52.68,7.61-5.52,11.62-14.41,14.12-23.2,1.58-5.56,2.7-11.23,4.31-16.78,1.7-5.84,4.13-11.38,6.99-16.74,5.45-10.24,11.85-19.92,17.08-30.29,21.3-42.27,31.52-89.52,42.23-135.31,11.48-49.09,21.52-98.52,30.09-148.2,4.3-24.9,8.23-49.86,11.79-74.88,1.58-11.12,3.08-22.18,3.96-33.38.8-10.16,1.8-20.91,7.54-29.65,9.79-14.9,27.5-23.68,43.99-28.95,8.34-2.66,16.97-4.56,25.68-5.41s18.57.71,24.39-6.66c2.45-3.1,3.56-6.97,3.2-10.89-.07-.79-1.32-.8-1.25,0h0Z"/>
      <path class="cls-1" d="m318.2,89.55c-2.36.65-2.76,3.38-1.91,5.39,1.29,3.04,4.9,3.29,7.77,3.08,4.14-.3,8.07-.36,12.16.55s7.76,2.39,11.32,4.32c7.35,3.99,13.51,9.76,19.06,15.94,5.88,6.55,11.3,13.51,16.87,20.32,6.68,8.19,13.36,16.37,20.05,24.56.51.62,1.39-.27.88-.88-10.98-13.46-21.8-27.07-32.99-40.36-9.66-11.47-21.32-22.86-36.72-25.47-1.99-.34-4.01-.52-6.03-.52s-4.16.36-6.25.35c-1.91,0-4.14-.44-4.97-2.38-.55-1.29-.51-3.25,1.1-3.7.77-.21.45-1.42-.33-1.21h0Z"/>
      <path class="cls-1" d="m320.58,172.15c-1.36,3.44-2.22,7.04-2.61,10.72-.09.8,1.17.79,1.25,0,.38-3.56,1.25-7.05,2.57-10.39.29-.75-.91-1.07-1.21-.33h0Z"/>
      <path class="cls-1" d="m319.65,183.77c5.88-.76,11.45-2.68,17.01-4.66s11.43-3.89,17.3-5.34,11.88-2.56,17.91-3.29c3.04-.37,6.09-.65,9.15-.84s6.13-.26,8.88,1.06c5.88,2.81,7.96,9.79,11.32,14.85.44.67,1.53.04,1.08-.63-3.09-4.64-4.97-10.29-9.48-13.85s-10.77-2.84-16.27-2.34c-12.42,1.12-24.7,3.77-36.48,7.85-6.7,2.32-13.35,5.04-20.43,5.95-.79.1-.8,1.35,0,1.25h0Z"/>
      <path class="cls-1" d="m322.1,172.18c8.24-3.06,15.78-7.68,24.13-10.49s17.07-4.43,25.85-4.69c4.7-.14,9.53.25,13.7,2.61.7.4,1.33-.68.63-1.08-7.18-4.08-16.47-3.02-24.31-1.9-9.01,1.29-17.76,3.95-26.01,7.79-4.76,2.22-9.39,4.71-14.33,6.54-.75.28-.42,1.49.33,1.21h0Z"/>
      <path class="cls-1" d="m386.09,159.79c4.04.78,6.59,5.31,8.38,8.65,2.02,3.76,3.34,7.85,3.98,12.06.12.79,1.33.46,1.21-.33-.69-4.56-2.2-8.98-4.45-13-1.93-3.43-4.6-7.77-8.78-8.58-.79-.15-1.12,1.05-.33,1.21h0Z"/>
      <path class="cls-1" d="m205.68,173.16c-1.44,0-2.34,1.77-3.11,2.76-1.04,1.33-2.06,2.66-3.07,4.01-2.07,2.76-4.09,5.56-6.04,8.4-.46.66.63,1.29,1.08.63,1.74-2.53,3.52-5.02,5.36-7.48.94-1.26,1.89-2.52,2.86-3.77.47-.61.94-1.21,1.42-1.81.33-.42.91-1.49,1.52-1.49.8,0,.81-1.25,0-1.25h0Z"/>
      <path class="cls-1" d="m194.36,189.28c.53-3.7,1.18-7.38,1.97-11.03.71-3.28,1.19-7.2,3.47-9.81,2.13-2.43,5.16-4.35,7.82-6.15s5.7-3.44,8.93-4.3c6.96-1.85,14.32-.68,20.94,1.84s13.27,5.61,20,8.21c7.68,2.97,15.43,5.75,23.18,8.53.76.27,1.09-.94.33-1.21-7.29-2.62-14.59-5.23-21.82-8.01s-13.89-5.83-20.91-8.56c-6.57-2.56-13.75-3.79-20.74-2.32-3.4.71-6.53,2.16-9.45,4.02s-5.58,3.74-8.04,5.94c-2.87,2.57-3.66,5.96-4.5,9.58-.99,4.27-1.78,8.59-2.4,12.93-.11.79,1.09,1.13,1.21.33h0Z"/>
      <path class="cls-1" d="m280.54,175.81c-.75,3.23-1.07,6.54-.95,9.85.03.8,1.28.81,1.25,0-.12-3.2.18-6.39.9-9.52.18-.78-1.02-1.12-1.21-.33h0Z"/>
      <path class="cls-1" d="m204.78,176c9.22-3.65,19.31-5.03,29.16-3.79,5.09.64,9.75,2.34,14.51,4.18s9.63,3.47,14.52,4.97c5.51,1.69,11.06,3.22,16.62,4.76.78.21,1.11-.99.33-1.21-10.1-2.79-20.22-5.58-30.02-9.3-4.75-1.8-9.37-3.67-14.43-4.44s-9.91-.85-14.84-.34c-5.55.57-11,1.91-16.19,3.96-.74.29-.42,1.5.33,1.21h0Z"/>
      <path class="cls-1" d="m210.32,215.88c6.54,4.92,14.56,7.8,22.75,8.04,4.47.13,8.44-1.05,12.49-2.84s8.41-3.58,13.03-4.28c2.42-.37,4.94-.19,7.33-.68,1.77-.36,3.37-1.45,3.83-3.26.2-.78-1-1.11-1.21-.33-.58,2.27-3.18,2.51-5.13,2.59s-3.91.26-5.84.59c-4,.69-7.72,2.1-11.41,3.75-3.88,1.74-7.65,3.21-11.96,3.23-3.93.02-7.87-.63-11.61-1.83-4.2-1.34-8.12-3.4-11.64-6.05-.64-.48-1.27.6-.63,1.08h0Z"/>
      <path class="cls-1" d="m210.07,214.1l.14.69c.02.08.06.15.11.21.04.07.1.12.18.16.07.05.15.07.23.07.08.02.17.01.25-.01.15-.05.3-.14.37-.29l.06-.15c.03-.11.03-.22,0-.33l-.14-.69c-.02-.08-.06-.15-.11-.21-.04-.07-.1-.12-.18-.16-.07-.05-.15-.07-.23-.07-.08-.02-.17-.01-.25.01-.15.05-.3.14-.37.29l-.06.15c-.03.11-.03.22,0,.33h0Z"/>
      <path class="cls-1" d="m211.2,212.96c6.61-5.19,14.8-7.76,23-9.04,4.55-.71,9.17-1.16,13.74-.39s8.64,2.29,12.84,3.82c.76.28,1.08-.93.33-1.21-4.48-1.64-9-3.28-13.75-3.96s-9.03-.17-13.49.53c-8.44,1.32-16.76,4.03-23.55,9.36-.63.5.26,1.38.88.88h0Z"/>
      <path class="cls-1" d="m260.29,207.24c1.71.36,3.34.97,4.85,1.84.74.43,1.45.91,2.11,1.45.21.17,1.56,1.19,1.03,1.46-.72.36-.09,1.44.63,1.08,1.03-.51.82-1.8.19-2.53-.68-.79-1.62-1.44-2.48-2-1.82-1.2-3.87-2.05-6-2.49-.78-.16-1.12,1.04-.33,1.21h0Z"/>
      <path class="cls-1" d="m228.75,204.86c-1.53,5.72,1.51,12.2,7.05,14.43s12.72-.33,15.09-6.12c1.3-3.17,1.15-6.84-.52-9.85-.39-.7-1.47-.07-1.08.63,2.68,4.82.77,11.26-4.16,13.76s-11.13.76-13.95-4.04c-1.5-2.55-1.99-5.62-1.23-8.48.21-.78-1-1.11-1.21-.33h0Z"/>
      <path class="cls-1" d="m224.19,204.63c-.62-.01-1.07-.06-1.62-.17s-1.12-.29-1.66-.5c-.3-.12-.7.13-.77.44-.08.36.11.64.44.77,1.15.46,2.38.7,3.62.72.33,0,.64-.29.62-.62s-.27-.62-.62-.62h0Z"/>
      <path class="cls-1" d="m225.98,204.4c-1.53.16-3.06,0-4.52-.46-.32-.1-.68.12-.77.44-.09.34.11.67.44.77,1.56.5,3.23.67,4.86.5.34-.03.62-.26.62-.62,0-.31-.29-.66-.62-.62h0Z"/>
      <path class="cls-1" d="m228.18,203.52h-2.34c-.33,0-.64.29-.62.63s.27.63.62.62h2.34c.33,0,.64-.29.62-.63s-.27-.63-.62-.62h0Z"/>
      <path class="cls-1" d="m229.98,203.1h-.28c-.09,0-.17.01-.24.05-.08.03-.14.07-.2.13-.06.06-.1.12-.13.2-.04.07-.06.15-.05.24l.02.17c.03.11.08.2.16.28l.13.1c.1.06.2.08.32.09h.28c.09,0,.17-.01.24-.05.08-.03.14-.07.2-.13.06-.06.1-.12.13-.2.04-.07.06-.15.05-.24l-.02-.17c-.03-.11-.08-.2-.16-.28l-.13-.1c-.1-.06-.2-.08-.32-.09h0Z"/>
      <path class="cls-1" d="m217.49,205.85c2.99-1.28,5.65-3.17,8.73-4.26s6.11-1.63,9.27-1.68,6.23.43,9.21,1.37c3.24,1.03,6.33,2.45,9.62,3.3.78.2,1.11-1,.33-1.21-3.44-.89-6.67-2.41-10.07-3.44-3.08-.94-6.31-1.37-9.53-1.27s-6.38.69-9.38,1.79-5.8,3.02-8.82,4.32c-.74.32-.1,1.39.63,1.08h0Z"/>
      <path class="cls-1" d="m211.71,203.19c4.2-1.74,7.84-4.59,12.01-6.43s8.86-3.08,13.52-2.79c8.82.55,16.45,5.83,24.68,8.49.77.25,1.1-.96.33-1.21-8.36-2.7-16.05-7.97-25.01-8.54-4.53-.29-9.03.8-13.19,2.54-2.1.88-4.13,1.92-6.1,3.06-2.17,1.26-4.25,2.69-6.58,3.66-.73.3-.41,1.51.33,1.21h0Z"/>
      <path class="cls-1" d="m227.77,203.11h2.84c.82.01.78-1.16,0-1.24-1.67-.18-3.24.09-4.78.75-.56.24-.29,1.24.32,1.16,2.82-.34,5.62-.81,8.39-1.43.68-.15.54-1.29-.17-1.23-2.68.24-5.24.91-7.7,2.02-.68.3-.18,1.28.48,1.14,1.84-.39,3.65-.89,5.44-1.5.64-.22.57-1.24-.17-1.23-3.36.05-6.65.75-9.93,1.46l.48,1.14c3.29-1.73,6.81-2.89,10.49-3.47l-.33-1.21c-5.06.85-9.7,3.1-14.26,5.34-.63.31-.19,1.37.48,1.14,2.69-.89,5.37-1.79,8.06-2.68l-.48-1.14c-1.97,1.03-3.93,2.08-5.87,3.14-.71.39-.08,1.44.63,1.08,2.69-1.35,5.41-2.7,8.32-3.53,3.18-.9,6.21-.77,9.44-.28.79.12,1.13-1.09.33-1.21-3.32-.5-6.47-.69-9.75.18s-6.08,2.3-8.97,3.75l.63,1.08c1.95-1.06,3.91-2.11,5.87-3.14.62-.33.19-1.37-.48-1.14-2.69.89-5.37,1.79-8.06,2.68l.48,1.14c4.47-2.2,9-4.39,13.96-5.22.79-.13.45-1.33-.33-1.21-3.78.6-7.4,1.82-10.78,3.6-.65.34-.19,1.29.48,1.14,3.17-.69,6.34-1.37,9.59-1.42l-.17-1.23c-1.78.61-3.59,1.1-5.44,1.5l.48,1.14c2.24-1.01,4.62-1.63,7.07-1.85l-.17-1.23c-2.66.59-5.35,1.06-8.06,1.38l.32,1.16c1.33-.56,2.72-.73,4.15-.58v-1.25h-2.84c-.8-.01-.81,1.24,0,1.24h0Z"/>
      <path class="cls-1" d="m235.49,201.56l-2.71.09.17,1.23c1.89-.5,3.73-1.13,5.53-1.89.58-.25.61-1.28-.17-1.23-2.56.19-5.09.56-7.59,1.12l.48,1.14c1.74-.91,3.68-1.19,5.6-1.45.62-.08.58-1.09,0-1.21-2.47-.51-4.96-.12-7.14,1.16-.7.41-.08,1.45.63,1.08.79-.41.81-1.54.11-2.06-1.21-.89-2.16.56-3.17.95-.44.17-.69.9-.15,1.14,1.18.52,2.31-.01,3.5-.29,1.59-.37,3.21-.6,4.85-.68,3.21-.16,6.4.23,9.48,1.12l.17-1.23c-2.58.13-5.17.27-7.75.4-.8.04-.81,1.26,0,1.25,1.81-.02,3.61-.04,5.42-.06,1.65-.02,3.36-.12,4.82.76.69.41,1.32-.67.63-1.08-1.43-.86-3.05-.95-4.68-.94-2.06.01-4.13.04-6.19.07v1.25c2.58-.13,5.17-.27,7.75-.4.69-.04.86-1.03.17-1.23-2.82-.82-5.75-1.24-8.69-1.2-1.43.02-2.86.15-4.28.37-.68.11-1.36.24-2.03.39s-1.87.71-2.53.41l-.15,1.14c.33-.13.6-.27.89-.48.41-.31.76-.46,1.21-.69l.63,1.08c1.89-1.1,4.04-1.47,6.18-1.03v-1.21c-2.04.28-4.05.61-5.9,1.58-.65.34-.19,1.29.48,1.14,2.39-.54,4.81-.9,7.26-1.07l-.17-1.23c-1.8.76-3.64,1.39-5.53,1.89-.67.18-.55,1.25.17,1.23l2.71-.09c.8-.03.81-1.28,0-1.25h0Z"/>
      <path class="cls-1" d="m271.58,245.85c-4.15,6.05-5.95,13.58-4.86,20.84.5,3.34,1.75,6.72,4.51,8.84s6.37,2.69,9.74,3.16c.79.11,1.13-1.09.33-1.21-3.1-.44-6.45-.9-9.07-2.76-2.9-2.06-3.99-5.64-4.39-9.02-.8-6.76.98-13.63,4.82-19.23.46-.67-.63-1.29-1.08-.63h0Z"/>
      <path class="cls-1" d="m283.28,271.59c-1.19.27-2.32-.56-2.75-1.65s.05-2.27.8-3.08c1.92-2.05,5.04-1.51,7.3-.38,4.19,2.1,6.84,6.21,9.3,10.03.43.67,1.52.05,1.08-.63-3.11-4.84-7.12-10.96-13.42-11.62-2.77-.29-5.92,1.19-6.41,4.17-.42,2.51,1.88,4.95,4.43,4.37.78-.18.45-1.38-.33-1.21h0Z"/>
      <path class="cls-1" d="m300.03,277.85c1.11.17,2.24.1,3.32-.25.31-.1.54-.44.44-.77-.1-.31-.44-.54-.77-.44-.23.07-.46.14-.69.18-.13.03-.25.05-.38.07.15-.02-.03,0-.05,0-.06,0-.13.01-.19.02-.24.02-.48.03-.71.02-.12,0-.24,0-.36-.02-.05,0-.11,0-.16-.02-.04,0-.07,0-.11-.01.08.01.08,0,0,0-.32-.05-.69.08-.77.44-.07.3.09.72.44.77h0Z"/>
      <path class="cls-1" d="m304.63,276.68c0-2.17,1.19-4.04,2.54-5.65,1.42-1.7,3-3.27,4.65-4.74,1.38-1.22,3.61-3.44,5.48-1.81s1.18,4.27.68,6.3c-.19.78,1.01,1.11,1.21.33.6-2.41,1.11-5.18-.7-7.22-.73-.81-1.77-1.31-2.87-1.24-1.23.08-2.29.78-3.23,1.53-2.18,1.74-4.21,3.74-6.02,5.87-1.6,1.89-2.99,4.07-2.98,6.63,0,.8,1.25.81,1.25,0h0Z"/>
      <path class="cls-1" d="m327.88,248.12c3.52,4.89,6.22,11.09,6.33,17.2.06,3.39-1.28,5.93-4.01,7.9s-5.56,3.7-8.34,5.53c-.67.44-.04,1.52.63,1.08,2.98-1.97,6.13-3.81,8.96-6,2.53-1.96,3.89-4.51,4-7.72.24-6.53-2.75-13.43-6.49-18.63-.47-.65-1.55-.02-1.08.63h0Z"/>
      <path class="cls-1" d="m253.54,318.64c8.43-4.06,15.99-9.59,23.92-14.49,3.78-2.33,7.97-4.88,12.55-3.42,3.57,1.13,6.71,3.67,10.64,3,.79-.13.46-1.34-.33-1.21-4.1.69-7.55-2.69-11.44-3.37-4.25-.74-8.18,1.54-11.66,3.67-8.08,4.95-15.75,10.6-24.31,14.73-.72.35-.09,1.43.63,1.08h0Z"/>
      <path class="cls-1" d="m300.9,303.85c3.56-.29,6.23-2.66,9.5-3.8,4.42-1.54,8.72.96,12.47,3.08,7.67,4.34,14.82,9.61,22.07,14.59.66.46,1.29-.63.63-1.08-7.51-5.15-14.9-10.64-22.89-15.05-3.48-1.92-7.45-4.03-11.55-3.07-3.61.85-6.47,3.77-10.24,4.07-.8.06-.8,1.31,0,1.25h0Z"/>
      <path class="cls-1" d="m253.67,318.77c8.7-.46,17.07-3.02,25.69-4.05s17.93.28,26.8.98c.8.06.8-1.19,0-1.25-8.87-.7-17.92-2.04-26.8-.98s-17,3.59-25.69,4.05c-.8.04-.81,1.29,0,1.25h0Z"/>
      <path class="cls-1" d="m305.22,315.17c3.15.49,5.99-1.5,9.16-1.41,3.52.09,7.07,1.11,10.48,1.9,6.57,1.54,13.21,3.17,20.01,2.74.8-.05.8-1.3,0-1.25-6.85.43-13.52-1.27-20.14-2.81-3.09-.72-6.24-1.53-9.41-1.79-1.6-.13-3.18-.02-4.73.42-1.65.47-3.27,1.25-5.03.98-.79-.12-1.13,1.08-.33,1.21h0Z"/>
      <path class="cls-1" d="m331.39,205.01c-2.34-.25-4.43,1.57-4.58,3.9-.16,2.46,1.85,4.23,4.12,4.65,1.57.29,3.14.04,4.69-.21.33-.05.52-.47.44-.77-.1-.35-.43-.49-.77-.44-2.23.36-5.59.81-6.9-1.61-.52-.96-.44-2.24.21-3.12s1.73-1.27,2.78-1.15c.34.04.62-.31.62-.62,0-.37-.29-.59-.62-.62h0Z"/>
      <path class="cls-1" d="m330.74,206.64c2.16-.5,3.95-1.75,5.78-2.93,2.06-1.33,4.17-2.59,6.33-3.75s4.49-2.31,6.96-2.85,5.07-.48,7.57-.51c5.05-.07,9.94.47,14.65,2.4,4.43,1.81,8.47,4.45,12.46,7.04.68.44,1.3-.64.63-1.08-6.33-4.11-12.87-8.23-20.49-9.26-3.92-.53-7.95-.43-11.89-.21s-7.32,1.65-10.72,3.49c-1.95,1.06-3.87,2.19-5.74,3.39s-3.67,2.55-5.87,3.06c-.78.18-.45,1.39.33,1.21h0Z"/>
      <path class="cls-1" d="m330.45,204.85c5.08-6.76,12.4-12.11,20.81-13.67,9.36-1.74,19.71.91,27.92,5.42.71.39,1.34-.69.63-1.08-6.89-3.78-14.64-5.91-22.51-6.04-7.2-.12-14.02,2.24-19.78,6.54-3.11,2.33-5.82,5.1-8.16,8.21-.48.64.6,1.27,1.08.63h0Z"/>
      <path class="cls-1" d="m334.7,213.85c8.81,2.02,16.8,7.72,26.14,7.04.8-.06.8-1.31,0-1.25-9.2.67-17.13-5-25.81-6.99-.78-.18-1.12,1.03-.33,1.21h0Z"/>
      <path class="cls-1" d="m360.56,221.31c7.91-.23,16.78-1.25,21.84-8.11.48-.65-.61-1.27-1.08-.63-4.76,6.46-13.38,7.28-20.76,7.49-.8.02-.81,1.27,0,1.25h0Z"/>
      <path class="cls-1" d="m349.42,197.17c6.13-.04,11.91,1.93,17.73,3.61,4.78,1.38,10.22,2.29,14.58-.76.26-.18.01-.62-.25-.43-4.83,3.38-10.8,1.73-15.97.18s-10.56-3.13-16.09-3.1c-.32,0-.32.5,0,.5h0Z"/>
      <path class="cls-1" d="m374.06,202.35l9.38.17c.32,0,.32-.49,0-.5l-9.38-.17c-.32,0-.32.49,0,.5h0Z"/>
      <path class="cls-1" d="m373.96,203.21c3.45,1.56,7.8,2.8,11.06.13.25-.2-.11-.56-.35-.35-3.06,2.5-7.24,1.24-10.46-.21-.29-.13-.55.3-.25.43h0Z"/>
      <path class="cls-1" d="m373.94,202.99c3.14,3.63,8.25,5.25,12.91,4.11.31-.08.18-.56-.13-.48-4.49,1.09-9.4-.49-12.42-3.99-.21-.24-.56.11-.35.35h0Z"/>
      <path class="cls-1" d="m376.18,205.74c4.46,2.09,8.98,6.4,14.29,4.73.31-.1.18-.58-.13-.48-5.15,1.62-9.58-2.65-13.9-4.67-.29-.14-.54.3-.25.43h0Z"/>
      <path class="cls-1" d="m363.18,200.64c1.78,5.05-.74,10.41-5.36,12.87-2.43,1.29-5.4,1.89-7.95.61-2.16-1.09-5.27-3.14-4.39-5.98.24-.77-.97-1.1-1.21-.33-.96,3.12,1.69,5.46,4.09,6.9,1.47.88,3.01,1.45,4.74,1.39,1.47-.05,2.93-.44,4.28-1.01,5.68-2.42,9.11-8.78,6.99-14.78-.27-.75-1.47-.43-1.21.33h0Z"/>
      <path class="cls-1" d="m344.84,198.84c-1.67,2.2-2.96,4.85-2.95,7.66.01,2.47,1.05,4.85,3.03,6.36.64.49,1.26-.6.63-1.08-1.72-1.31-2.49-3.56-2.41-5.67.1-2.46,1.31-4.72,2.77-6.64.49-.64-.6-1.26-1.08-.63h0Z"/>
      <path class="cls-1" d="m244.02,4.59c-22.34,5.71-43.18,16.89-60.32,32.32s-29.88,34.9-38.91,55.96-14.74,44.2-18.79,67.1c-4.47,25.31-7.41,50.92-10.22,76.47-3.11,28.29-5.64,56.65-7.64,85.04-.24,3.44-.48,6.88-.71,10.33-.05.8,1.2.8,1.25,0,1.86-27.97,4.2-55.91,7.11-83.79,2.72-26.11,5.68-52.26,9.82-78.19,3.64-22.8,8.48-45.54,16.61-67.2s19.5-41.7,35.49-58.19,36.41-29.22,58.49-36.29c2.7-.86,5.42-1.64,8.17-2.34.78-.2.45-1.4-.33-1.21h0Z"/>
      <path class="cls-1" d="m144.56,130.73c0,23.72-8.2,46.27-17.94,67.58s-20.97,42.53-29.4,64.76-15.26,46.33-20.33,70.17c-5.06,23.82-8.58,47.95-11.09,72.17-2.53,24.45-4.03,49-5.01,73.56-.12,3.03-.23,6.07-.34,9.1-.03.8,1.22.8,1.25,0,.86-24.55,2.17-49.1,4.45-73.57,2.29-24.58,5.57-49.08,10.38-73.3,4.74-23.91,10.99-47.55,19.21-70.51,4.15-11.58,8.82-22.97,13.99-34.14s10.29-21.25,15.33-31.93c9.73-20.65,18.63-42.29,20.42-65.28.22-2.87.33-5.74.33-8.62,0-.8-1.25-.81-1.25,0h0Z"/>
      <path class="cls-1" d="m124.94,250.95c.81,28.59-4.18,56.95-12.23,84.3s-19.32,54.47-30.97,80.89c-6.76,15.34-13.65,30.64-20.49,45.95-.33.73.75,1.36,1.08.63,12.11-27.1,24.59-54.09,35.6-81.66,10.65-26.69,19.84-54.14,24.7-82.53,2.69-15.71,4.01-31.65,3.56-47.58-.02-.8-1.27-.81-1.25,0h0Z"/>
      <path class="cls-1" d="m108.22,314.25c-1.87,31.35,1.87,62.78-.6,94.11-1.22,15.56-4.37,30.74-9.11,45.59-4.72,14.76-10.6,29.16-16.7,43.4-6.88,16.07-14.3,31.9-22.23,47.47-.36.72.71,1.35,1.08.63,7.13-14,13.85-28.21,20.13-42.62,6.19-14.18,12.14-28.51,17.14-43.16,4.95-14.5,8.64-29.34,10.31-44.59,1.73-15.74,1.64-31.6,1.29-47.4-.4-17.81-1.12-35.64-.06-53.44.05-.8-1.2-.8-1.25,0h0Z"/>
      <path class="cls-1" d="m84.05,452.15c-.19,17.22-5.24,34.25-14.23,48.93-4.49,7.33-9.95,14.07-16.24,19.92-6.5,6.05-14.01,10.84-20.79,16.55-6.65,5.61-12.04,12.21-15.27,20.35s-4.28,16.8-3.75,25.37c1.16,18.78,10,36.36,19.9,51.99,4.7,7.43,10.15,14.58,17.36,19.75,6.77,4.86,15.42,7.74,23.79,6.62,2.11-.28,4.16-.82,6.13-1.62.74-.3.41-1.51-.33-1.21-8.19,3.31-17.42,1.75-25.02-2.39-7.92-4.32-13.94-11.4-18.9-18.78s-9.74-15.79-13.55-24.18-6.88-17.73-7.88-27.14c-.92-8.59-.22-17.42,2.55-25.62s7.97-15.36,14.6-21.17,13.92-10.4,20.43-16.17c6.16-5.47,11.58-11.77,16.14-18.63,9.15-13.8,14.79-29.92,16.05-46.43.16-2.04.24-4.09.26-6.14,0-.8-1.24-.81-1.25,0h0Z"/>
      <path class="cls-1" d="m220.47,353.31c8.51,13.35,14.14,28.26,17.75,43.63s5.35,31.66,6.31,47.66c.54,9.04.85,18.1,1.13,27.16.02.8,1.27.81,1.25,0-.5-16.22-1.08-32.46-2.96-48.59s-4.93-31.69-10.58-46.68c-3.13-8.31-7.04-16.31-11.81-23.8-.43-.68-1.51-.05-1.08.63h0Z"/>
      <path class="cls-1" d="m232.37,370.55c.92,16.86.36,33.78-1.47,50.56s-4.92,33.58-8.9,50.06-8.9,32.86-14.39,48.97-11.66,32.26-18.1,48.15c-6.47,15.97-13.26,31.8-20.11,47.61-.83,1.93-1.67,3.85-2.51,5.78-.32.73.76,1.37,1.08.63,6.84-15.74,13.64-31.5,20.17-47.37s12.82-32,18.53-48.27,10.83-32.65,15.08-49.31c4.17-16.33,7.48-32.89,9.62-49.61s3.09-33.76,2.54-50.69c-.07-2.17-.17-4.34-.29-6.51-.04-.8-1.29-.81-1.25,0h0Z"/>
      <path class="cls-1" d="m185.31,455.59c4.5,17.73,7.93,35.72,10.27,53.86,2.32,18.03,3.58,36.19,3.77,54.37.2,18.09-.66,36.2-2.55,54.19-1.92,18.19-4.91,36.26-8.95,54.09-4.02,17.72-9.09,35.21-15.2,52.33-.76,2.12-1.53,4.24-2.32,6.34-.28.75.93,1.08,1.21.33,6.38-17.11,11.74-34.6,16.03-52.35s7.51-35.7,9.7-53.8,3.31-36.39,3.37-54.65c.06-18.26-.96-36.52-3.04-54.66-2.08-18.11-5.23-36.1-9.46-53.84-.52-2.19-1.06-4.38-1.62-6.56-.2-.78-1.4-.45-1.21.33h0Z"/>
      <path class="cls-1" d="m149.08,358.62c.61,19.84,2.63,39.6,4.83,59.32,2.2,19.81,4.58,39.61,5.83,59.51,1.11,17.6,1.3,35.27-.32,52.85-1.52,16.58-4.6,33.07-9.86,48.88-5.16,15.51-12.48,30.34-22.32,43.43-1.27,1.7-2.59,3.36-3.95,4.99-.51.62.37,1.5.88.88,10.43-12.58,18.42-26.97,24.2-42.23,5.87-15.52,9.47-31.83,11.47-48.28s2.38-34.55,1.61-51.84c-.91-20.09-3.15-40.09-5.39-60.07s-4.5-39.98-5.45-60.07c-.12-2.46-.21-4.91-.29-7.37-.02-.8-1.27-.81-1.25,0h0Z"/>
      <path class="cls-1" d="m301.76,92.71c.19-11.78-1.78-23.55-3.23-35.21-1.45-11.68-2.9-23.36-4.34-35.05-.83-6.66-1.65-13.33-2.48-19.99-.1-.79-1.35-.8-1.25,0,2.9,23.44,5.89,46.87,8.71,70.32.8,6.62,1.45,13.26,1.34,19.93-.01.8,1.24.8,1.25,0h0Z"/>
      <path class="cls-1" d="m290.41,0c-20.26,1.48-40.69,3.04-60.38,8.34-16.59,4.47-32.59,11.8-45.71,23.03-7.1,6.08-13.22,13.29-17.8,21.45-.39.7.69,1.33,1.08.63,8.11-14.5,21.05-25.6,35.58-33.36,16.57-8.85,35.06-13.21,53.56-15.69,11.18-1.5,22.43-2.34,33.67-3.16.8-.06.8-1.31,0-1.25h0Z"/>
      <path class="cls-1" d="m315.67,91.07c-2.15-1.69-3.37-4.33-3.23-7.06.04-.8-1.21-.8-1.25,0-.16,3.02,1.21,6.07,3.6,7.94.27.21.63.26.88,0,.22-.22.27-.67,0-.88h0Z"/>
      <path class="cls-1" d="m311.89,82.46c.8,0,.81-1.25,0-1.25s-.81,1.25,0,1.25h0Z"/>
      <path class="cls-1" d="m311.21,84.4c-1.87,1.63-4.72,1.98-6.98,1s-3.65-3.33-3.69-5.8c-.02-1.39.37-2.72,1.16-3.86.46-.66-.62-1.29-1.08-.63-1.66,2.38-1.73,5.64-.4,8.18s4.34,4.1,7.29,3.88c1.7-.13,3.3-.76,4.59-1.88.61-.53-.28-1.41-.88-.88h0Z"/>
      <path class="cls-1" d="m291.16,2.84c16.5,2.66,33.03-1.04,49.56-1.22,8.2-.09,16.5.77,24.15,3.89,7.22,2.94,13.43,7.82,18.81,13.39,5.5,5.7,10.2,12.1,14.83,18.51,5.26,7.28,10.44,14.63,15.52,22.04,10.22,14.88,20.07,30.02,29.55,45.38,9.52,15.43,18.67,31.09,27.42,46.97,1.07,1.93,2.13,3.87,3.18,5.81.38.71,1.46.08,1.08-.63-8.74-16.07-17.87-31.92-27.39-47.54-9.48-15.55-19.34-30.87-29.56-45.94-5.14-7.57-10.37-15.07-15.69-22.51-4.65-6.5-9.29-13.07-14.53-19.11s-10.64-11.07-17.29-14.86-14.71-5.88-22.63-6.45c-16.77-1.21-33.43,2.93-50.2,1.8-2.17-.15-4.34-.39-6.49-.74-.79-.13-1.13,1.08-.33,1.21h0Z"/>
      <path class="cls-1" d="m458.3,133.1c8.97,10.3,16.06,22.13,21.28,34.73,5.18,12.5,8.58,25.7,10.51,39.08,2.04,14.14,2.37,28.48,1.43,42.73-1.05,16.06-3.66,31.97-7.09,47.68s-7.72,31.31-12.15,46.81c-.55,1.93-1.1,3.85-1.66,5.77-.22.77.98,1.11,1.21.33,4.53-15.72,8.98-31.48,12.65-47.43s6.48-31.61,7.88-47.68c1.27-14.62,1.3-29.36-.45-43.94-1.63-13.63-4.72-27.11-9.63-39.95-4.83-12.63-11.4-24.59-19.86-35.15-1.05-1.32-2.13-2.61-3.24-3.88-.53-.61-1.41.28-.88.88h0Z"/>
      <path class="cls-1" d="m481.26,328.36c2.5,22.84-2.76,46.19,3.03,68.72,1.46,5.67,3.64,11.14,6.7,16.14.42.69,1.5.06,1.08-.63-11.76-19.24-9.28-42.7-8.87-64.2.13-6.68.04-13.38-.69-20.03-.09-.79-1.34-.8-1.25,0h0Z"/>
      <path class="cls-1" d="m378.18,351.15c.1,8.04,3.51,15.61,8.62,21.71,5.47,6.54,12.85,11.2,20.57,14.67,16.91,7.6,35.8,11.41,54.27,12.12,5.28.2,10.55.11,15.82-.21,4.34-.26,9.46-.6,12.82,2.67.58.56,1.46-.32.88-.88-2.57-2.49-6.08-3.14-9.54-3.18-4.32-.05-8.64.43-12.96.46-9.47.07-18.95-.73-28.27-2.4-9.11-1.63-18.11-4.06-26.77-7.34-8.14-3.08-16.12-7.12-22.5-13.13-6.74-6.36-11.57-15.07-11.69-24.48-.01-.8-1.26-.81-1.25,0h0Z"/>
      <path class="cls-1" d="m236.4,428.59c10.84,5.42,21.67,10.83,32.51,16.25,4.53,2.26,9.51,5.63,14.79,5.25,4.91-.35,9.1-3.32,13.18-5.77,9.1-5.48,19.43-6.93,29.74-8.63s19.31-4.24,28.17-8.98c9.56-5.11,18.06-12.17,24.81-20.65.5-.62-.38-1.51-.88-.88-5.94,7.47-13.22,13.82-21.43,18.69-8.4,4.99-17.55,8.18-27.14,9.95s-20.07,2.67-29.27,6.93c-4.53,2.1-8.46,5.38-13.14,7.15-2.38.9-4.91,1.26-7.41.69-2.72-.62-5.2-2.03-7.67-3.27-11.88-5.93-23.75-11.87-35.63-17.8-.72-.36-1.35.72-.63,1.08h0Z"/>
      <path class="cls-1" d="m89.26,411.52c.8,0,.81-1.25,0-1.25s-.81,1.25,0,1.25h0Z"/>
      <path class="cls-1" d="m89,409.82c-25.21,4.96-49.48,14.54-71.29,28.14-6.03,3.76-11.87,7.84-17.49,12.19-.64.49.25,1.37.88.88,20.15-15.57,43.13-27.41,67.49-34.83,6.82-2.08,13.74-3.8,20.74-5.17.79-.16.45-1.36-.33-1.21h0Z"/>
      <path class="cls-1" d="m467.19,406.85c15.99-.21,31.97,3.22,46.41,10.1,14.14,6.74,26.76,16.37,41.39,22.14,7.98,3.15,16.51,5.09,25.13,4.53.8-.05.8-1.3,0-1.25-16.01,1.03-30.74-6.5-44.16-14.35-6.83-4-13.57-8.17-20.68-11.65s-14.37-6.08-21.95-7.89c-8.55-2.04-17.34-3-26.13-2.89-.8.01-.81,1.26,0,1.25h0Z"/>
      <path class="cls-1" d="m284.2,187.72c.51,17.29.95,35.15-5.41,51.55-.29.75.92,1.08,1.21.33,6.4-16.5,5.97-34.49,5.46-51.89-.02-.8-1.27-.81-1.25,0h0Z"/>
      <path class="cls-1" d="m312.85,188.91c1.28,17.53,5.21,34.82,11.66,51.17.29.74,1.5.42,1.21-.33-6.41-16.25-10.34-33.42-11.61-50.84-.06-.8-1.31-.8-1.25,0h0Z"/>
      <path class="cls-1" d="m377.54,407.09c2.53-4.74,7.51-7.23,11.33-10.76s6.82-8.53,8.17-13.79c.2-.78-1-1.11-1.21-.33-1.4,5.45-4.41,10.32-8.68,13.98-3.76,3.23-8.29,5.76-10.7,10.28-.38.71.7,1.34,1.08.63h0Z"/>
      <path class="cls-1" d="m256.21,319.58c2.37-.35,4.47,1.26,6.4,2.4,1.74,1.03,3.53,1.99,5.35,2.86,3.63,1.74,7.41,3.18,11.29,4.28,7.91,2.26,16.2,3.13,24.41,2.56.8-.05.8-1.31,0-1.25-8.54.59-17.13-.39-25.32-2.89-4.1-1.25-8.08-2.87-11.87-4.85-1.85-.96-3.59-2.09-5.41-3.1-1.63-.9-3.29-1.5-5.17-1.22-.79.12-.46,1.32.33,1.21h0Z"/>
      <path class="cls-1" d="m300.53,332.23c7.18-.22,14.46-.94,21.29-3.29,3.32-1.14,6.52-2.67,9.41-4.67s5.66-4.69,9.04-6.2c.73-.33.1-1.41-.63-1.08-3.25,1.46-5.82,3.92-8.7,5.96s-6.1,3.63-9.45,4.78c-6.73,2.31-13.88,3.02-20.95,3.25-.8.03-.81,1.28,0,1.25h0Z"/>
      <path class="cls-1" d="m277.78,79.54c-5.75-7.98-13-14.83-21.34-20.06s-18.89-9.83-29.21-8.25c-5.12.79-9.81,3.21-14.09,6.04-4.02,2.66-7.84,5.64-11.47,8.8-7.26,6.32-13.75,13.51-19.33,21.35-6.28,8.83-11.35,18.49-15.07,28.67-.28.76.93,1.08,1.21.33,6.4-17.52,16.94-33.44,30.51-46.24,3.37-3.18,6.92-6.16,10.64-8.92,4.04-2.99,8.3-5.89,13.07-7.59,10.17-3.63,20.89-.06,29.91,4.98,9.48,5.31,17.75,12.69,24.1,21.51.47.65,1.55.02,1.08-.63h0Z"/>
      <path class="cls-1" d="m240.78,86.12c-6.77.63-13.72-1.13-20.38.63-5.73,1.51-10.63,5.73-14.84,9.71-8.28,7.83-14.52,17.57-19.15,27.93-10.21,22.8-12.58,47.75-16.96,72.07-2.68,14.87-6.22,29.7-12.82,43.37-.34.71.72,1.34,1.07.62,11.54-23.92,13.69-50.68,18.43-76.45,4.09-22.24,10.84-45.43,26.31-62.58,4.27-4.73,9.36-9.63,15.2-12.36,7.29-3.41,15.46-.99,23.15-1.71.78-.07.79-1.31,0-1.24h0Z"/>
      <path class="cls-1" d="m162.09,138.95c.79,25.42,1.57,50.87.69,76.3s-3.58,49.93-8.42,74.5c-2.7,13.7-6.03,27.28-9.97,40.68-.23.77.98,1.1,1.21.33,6.98-23.78,12.04-48.11,15.11-72.7,3.14-25.21,3.93-50.61,3.67-76-.14-14.37-.59-28.74-1.03-43.11-.02-.8-1.27-.81-1.25,0h0Z"/>
      <path class="cls-1" d="m162.86,111.29c-.31,32.77-1.02,65.54-2.14,98.29-.32,9.31-.67,18.62-1.06,27.93-.03.8,1.22.8,1.25,0,1.35-32.75,2.3-65.51,2.84-98.28.15-9.32.27-18.63.36-27.95,0-.8-1.24-.81-1.25,0h0Z"/>
      <path class="cls-1" d="m151.16,145.42c.46,26.51.92,53.11-1.77,79.53-1.33,13.05-3.63,25.93-6.37,38.75s-5.64,25.03-7.93,37.65c-2.54,13.97-4.23,28.14-3.78,42.36.03.8,1.28.81,1.25,0-.82-25.77,5.43-50.96,10.86-75.96,2.73-12.55,5.18-25.16,6.68-37.92,1.54-13.16,2.25-26.41,2.52-39.66.3-14.91.04-29.83-.22-44.75-.01-.8-1.26-.81-1.25,0h0Z"/>
      <path class="cls-1" d="m359.6,221.09h1.89c.33,0,.64-.29.62-.62s-.27-.62-.62-.62h-1.89c-.33,0-.64.29-.62.62s.27.62.62.62h0Z"/>
      <path class="cls-1" d="m382.28,213.42c.61-.9,1.16-1.84,1.67-2.81.15-.29.08-.69-.22-.86-.29-.15-.69-.09-.86.22-.5.97-1.06,1.91-1.67,2.81-.18.27-.06.7.22.86.32.17.66.07.86-.22h0Z"/>
      <path class="cls-1" d="m365.61,199.16c0-.38,0-.75,0-1.13,0-.19,0-.41-.06-.6-.1-.29-.32-.52-.62-.6-.19-.05-.4-.05-.6-.07-.09,0-.18-.02-.26-.03-.14-.02.12.02,0,0-.04,0-.09-.01-.13-.02-.36-.06-.72-.13-1.08-.22-.32-.08-.69.1-.77.44s.1.68.44.77c.67.17,1.35.28,2.04.33.03,0,.06,0,.09,0,.08,0-.15-.04-.05,0-.1-.03-.16-.09-.22-.18.02.04.02.04,0-.02-.02-.06-.03-.06-.01-.01,0-.04-.02-.16,0-.05,0,.03,0,.06,0,.09,0,.09,0,.18,0,.28,0,.34,0,.67,0,1.01s.29.64.62.62.62-.27.62-.62h0Z"/>
      <path class="cls-1" d="m362.73,196.46c-1.38.06-2.77.03-4.14-.13s-2.74-.56-4.12-.38c-.63.08-.93,1.09-.17,1.23,1.85.32,3.69.6,5.57.7.91.05,1.76.2,2.63.47s1.71.58,2.6.74v-1.21c-.78.22-1.35.21-2.12-.01s-1.55-.45-2.33-.67-1.11.98-.33,1.21c.9.26,1.79.53,2.69.77.84.22,1.59.14,2.43-.09.56-.16.63-1.09,0-1.21-1.76-.32-3.36-1.11-5.16-1.23-1.91-.13-3.76-.35-5.64-.68l-.17,1.23c1.38-.18,2.76.23,4.12.38s2.76.19,4.14.13c.8-.04.81-1.29,0-1.25h0Z"/>
      <path class="cls-1" d="m370.11,198.41c-.09.65-.31,1.23-.69,1.76l.71-.29-3.48-.85c-.19-.05-.46-.1-.6-.17-.13-.06-.12-.06-.12-.2,0-.19.05-.36.08-.57.05-.3.05-.57.01-.88l-.77.77c1.58.49,3.2.86,4.84,1.12l-.37-.92c-.16.21-.33.42-.59.48-.36.08-.77.06-1.14.04-.33-.02-.52-.03-.85-.14-.07-.02-.18-.07-.29-.14.09.07-.11-.12-.06-.06.04.05-.08-.17-.05-.08l-.29.71c-.24.01-.28.03-.11.05.05.01.1.02.15.03.1.02.2.04.31.07.22.05.44.09.66.14.44.09.89.19,1.33.28.33.07.68-.1.77-.44.09-.31-.1-.7-.44-.77-.54-.12-1.09-.23-1.63-.35-.51-.11-1.19-.39-1.67-.1-.22.13-.38.45-.29.71.36,1,1.39,1.27,2.36,1.33.53.04,1.15.06,1.66-.1.56-.17.91-.58,1.25-1.03.23-.3,0-.86-.37-.92-1.64-.26-3.25-.64-4.84-1.12-.51-.16-.83.33-.77.77.02.14-.04.38-.07.56-.05.3-.09.59-.03.89.12.63.67.98,1.25,1.13,1.27.34,2.56.63,3.84.94.29.07.54-.05.71-.29.43-.61.71-1.32.81-2.06.05-.33-.08-.67-.44-.77-.29-.08-.72.1-.77.44h0Z"/>
      <path class="cls-1" d="m371.21,199.57c1.82-.04,3.65.53,5.09,1.66l.44-1.07c-1.05.07-2.1.06-3.14.03-.49-.01-.98-.02-1.47-.05-.2-.01-.41-.03-.61-.07-.11-.02-.22-.05-.32-.08-.07-.02-.14-.04-.21-.07-.09-.04-.08-.02.04.08l.06.48.02-.06-.16.28s.08-.05.11-.06c.05-.03.11-.06.16-.08.15-.06.31-.11.47-.15.28-.07.57-.1.86-.09.6,0,1.18.19,1.69.5.69.43,1.31-.66.63-1.08-.85-.53-1.87-.76-2.86-.65-.51.06-.98.19-1.45.4-.23.1-.46.23-.59.45-.16.28-.11.65.11.88.34.35.98.45,1.44.51.55.08,1.1.09,1.65.11,1.19.04,2.38.06,3.58-.01.48-.03.91-.7.44-1.07-1.71-1.34-3.8-2.07-5.98-2.03-.8.02-.81,1.27,0,1.25h0Z"/>
      <path class="cls-1" d="m239.69,206.63c-.57.04-1.19.08-1.67.41s-.72.97-.85,1.54c-.14.61-.12,1.24.22,1.78.28.45.73.78,1.22.98,1.07.44,2.49.28,3.38-.49.46-.4.47-1.15.5-1.72.03-.69-.12-1.3-.53-1.86s-.88-.86-1.56-.78c-.85.11-1.7.35-2.51.64-.03.01-.02.06.01.05.58-.2,1.16-.37,1.76-.5.67-.14,1.32-.29,1.88.2.48.42.82,1.05.89,1.68.03.28.02.57-.01.86-.03.31-.05.66-.15.96-.19.55-.91.86-1.42,1.01-.56.16-1.15.19-1.72.06-1.1-.25-2.04-1.11-1.98-2.29.03-.64.25-1.47.73-1.92s1.19-.51,1.82-.55c.03,0,.03-.05,0-.05h0Z"/>
      <path class="cls-1" d="m237.88,207.23s.03-.05,0-.05-.03.05,0,.05h0Z"/>
      <path class="cls-1" d="m353.39,201.65c-.35.02-.7-.01-1.05.05-.32.05-.63.16-.92.31-.54.29-.98.76-1.21,1.33-.47,1.15.05,2.54,1.21,3.05.65.29,1.39.26,2.03-.05.03-.01,0-.06-.03-.04-.74.36-1.64.32-2.33-.14-.61-.41-1-1.13-1.01-1.87-.01-.8.41-1.57,1.05-2.04.3-.22.64-.37,1-.46.42-.1.83-.07,1.26-.09.03,0,.03-.05,0-.05h0Z"/>
      <path class="cls-1" d="m353.18,201.66c1.26.22,2.17,1.36,2.05,2.65-.05.61-.36,1.31-.79,1.75-.47.48-1.15.54-1.78.51-.03,0-.03.05,0,.05.62.03,1.28-.03,1.76-.47s.78-1.14.85-1.76c.16-1.33-.77-2.55-2.08-2.78-.03,0-.04.04-.01.05h0Z"/>
      <path class="cls-1" d="m233.18,207.92c.09,1.21-.15,2.45.18,3.64.17.6.48,1.11.89,1.57.36.41.79.76,1.08,1.23.43.68,1.5.06,1.08-.63-1.29-2.1-2.38-4.31-3.26-6.61-.12-.32-.42-.53-.77-.44-.3.08-.56.45-.44.77.91,2.4,2.04,4.72,3.38,6.91l1.08-.63c-.55-.88-1.56-1.47-1.85-2.5s-.05-2.22-.14-3.31c-.03-.34-.27-.62-.62-.62-.32,0-.65.29-.62.62h0Z"/>
      <path class="cls-1" d="m232.1,207.43c-.27.63-.54,1.25-.78,1.89-.23.6-.52,1.21-.6,1.85-.09.73.21,1.35.51,2,.26.56.55,1.1.85,1.63l.45-1.71-.07.05.63-.17h-.08c.21.05.42.11.63.16.04.04.09.08.13.12-.05-.09-.11-.17-.16-.26-.09-.15-.18-.31-.27-.47-.19-.34-.37-.68-.53-1.03-.28-.58-.5-1.2-.68-1.86s-.27-1.2-.29-1.9c0-.35,0-.7.05-1.05,0,.08,0,.04.02-.12.02-.1.04-.2.06-.3.02-.09.04-.17.07-.25-.02.06-.05.11-.1.15l-.88.37h.06c-.4-.31-.8-.61-1.21-.92v.03c.12-.41.22-.81.33-1.22l-.03.03,1.51-.2h-.02c-.57-.38-1.38-.13-1.71.43-.35.6-.12,1.35.45,1.71h.02c.45.3,1.15.21,1.51-.18.33-.35.46-.81.34-1.28-.13-.51-.66-.94-1.21-.92-1.49.07-1.69,1.86-1.77,3.02-.07,1.08.08,2.2.36,3.24s.71,2.06,1.21,3.01c.53,1.01,1.45,2.85,2.87,1.94.57-.36.8-1.11.45-1.71-.24-.41-.47-.84-.68-1.27-.12-.24-.24-.48-.34-.72.04.1-.03-.11-.03-.11,0,.04-.03.19,0,.02.09-.47.33-.95.5-1.39s.37-.92.56-1.37c.27-.62.18-1.34-.45-1.71-.53-.31-1.44-.17-1.71.45h0Z"/>
      <path class="cls-1" d="m230.97,206.71c1.53.09,2.99-.33,4.47-.65s3.04-.55,4.58-.69,2.97-.19,4.46-.19c.73,0,3.49-.34,3.39.87-.14,1.6,2.36,1.59,2.5,0,.36-4.11-5.8-3.43-8.29-3.32-1.83.08-3.65.27-5.45.56s-3.75,1.02-5.66.91c-1.61-.09-1.6,2.41,0,2.5h0Z"/>
      <path class="cls-1" d="m235.79,202.01c1.39.44,3,1.11,4.36.23.8-.52.84-2.11-.3-2.28-1.28-.19-2.33.16-3.48.7-.91.43-1.84.77-2.86.84s-2.01-.06-2.97-.4c-.54-.19-1.03-.47-1.61-.47-.63,0-1.18.29-1.68.65-.54.4-.81,1.09-.45,1.71.31.54,1.16.85,1.71.45.15-.11.31-.25.49-.32-.2-.03-.2-.02.01.04.11.04.21.08.31.13.43.18.86.33,1.31.44,1,.24,2.05.34,3.08.25,1.09-.1,2.11-.36,3.11-.79.68-.3,1.59-.94,2.37-.83l-.3-2.28c-.28.18-.58.08-.89,0-.52-.14-1.03-.32-1.55-.48-1.54-.48-2.2,1.93-.66,2.41h0Z"/>
      <path class="cls-1" d="m241.16,213.87c1.15-.5,2.22-1.08,2.98-2.12.37-.5.61-1.12.75-1.72.08-.36.13-.73.17-1.09.02-.13.03-.27.04-.4,0-.09.06-.33,0,.02.05-.23-.14.23,0,.02.35-.55.13-1.4-.45-1.71-.62-.33-1.33-.14-1.71.45-.24.37-.29.79-.33,1.22-.01.13-.02.27-.04.4-.02.23.03-.21,0-.05-.01.07-.02.13-.03.2-.05.27-.11.53-.2.78-.01.04-.11.26-.02.07s-.03.05-.04.07c-.06.12-.13.24-.2.35-.03.04-.07.09-.09.13.13-.25.08-.11,0-.02s-.18.18-.27.27c-.04.03-.08.06-.12.1.19-.21.11-.08.01-.01s-.19.13-.29.19c-.45.28-.94.49-1.42.7-.27.12-.5.48-.57.75-.08.3-.05.7.13.96s.43.5.75.57c.35.08.64.02.96-.13h0Z"/>
      <path class="cls-1" d="m244.64,209.07c.66-.38,1.33-.73,2.02-1.04.2-.09.57-.24.89-.35.35-.13.7-.26,1.06-.34h-.66l.11.03-.75-.57c-.03-.06-.05-.13-.05-.2,0,.08.02.16.02.24,0,.12.02.24.02.36.01.28,0,.56-.01.84,0,.05-.05.52-.02.27-.02.12-.04.24-.06.36-.05.28-.12.55-.2.82-.03.11-.07.23-.11.34-.03.08-.05.15-.08.22.05-.11.05-.1-.01.03-.12.25-.24.5-.39.74-.06.1-.13.2-.19.3-.04.07-.09.13-.14.19.08-.1.07-.09-.02.03-.18.21-.37.41-.58.6l2.09.55c-.19-.73-.16-1.53,0-2.27.09-.42.22-.83.36-1.23,0,0,.15-.36.08-.22s.08-.15.08-.14c.07-.12.08-.06,0,0-.06.04-.34.13-.11.09l-.96-2.28c-.76.34-1.7.61-2.29,1.23-.35.37-.56.83-.72,1.3-.13.37-.23.82-.37,1.07-.04.07-.08.14-.13.21-.02.03-.18.24-.06.09-.12.14-.25.28-.39.4-.06.06-.12.11-.19.17-.04.04-.22.18-.09.08-.15.12-.31.22-.46.33-.74.5-1.29.84-2.13.98-.65.11-1.07.94-.87,1.54.23.7.84.99,1.54.87.9-.15,1.74-.58,2.5-1.08s1.48-1.03,2.03-1.75c.3-.39.52-.79.7-1.25.08-.2.14-.41.2-.62.03-.11.07-.22.1-.33.02-.07.1-.26.03-.1.03-.07.07-.15.12-.21-.13.19.11-.07,0,0-.11.08.15-.07.17-.08.07-.04.14-.07.21-.1.45-.2.9-.4,1.35-.6.57-.25.73-1.04.51-1.56-.25-.6-.85-.85-1.47-.72-1.33.26-1.8,1.84-2.09,2.97-.32,1.27-.39,2.6-.07,3.88.24.94,1.42,1.17,2.09.55,1.71-1.59,2.58-3.95,2.56-6.26,0-.62,0-1.37-.34-1.9-.59-.93-1.61-.6-2.45-.31-1.26.45-2.49,1.01-3.65,1.69-.56.33-.81,1.14-.45,1.71s1.11.8,1.71.45h0Z"/>
      <path class="cls-1" d="m239.28,213.49l-.08,3.15c-.01.48-.07.99.19,1.42.28.48.84.75,1.37.87,1.72.42,3.62-.35,5-1.35.7-.5,1.35-1.07,1.93-1.7s1.23-1.32,1.62-2.1c.44-.88.57-1.89.75-2.84.2-1.03.39-2.05.57-3.08.12-.66-.18-1.35-.87-1.54-.61-.17-1.42.21-1.54.87-.24,1.32-.48,2.64-.74,3.95-.11.53-.17,1.13-.45,1.6s-.64.86-1,1.24c-.69.75-1.45,1.44-2.34,1.94-.45.25-.89.42-1.4.54-.22.05-.41.08-.64.07-.08,0-.13-.02-.23-.02-.13,0-.2-.13-.07.02l.32.55c.08.29.02-.06.02-.16v-.49c.02-.33.03-.66.04-.98l.05-1.97c.04-1.61-2.46-1.61-2.5,0h0Z"/>
      <path class="cls-1" d="m248.37,206.83c.02,1.2-.03,2.41-.22,3.6-.08.51-.14,1.14-.39,1.56-.15.26-.44.44-.84.64-.06.03-.29.12-.48.17-.3.09-.6.16-.9.23-.59.13-1.18.25-1.74.47-1.01.39-1.96,1.15-2.93,1.45l1.22,2.09c.64-.73,1.46-1.12,2.3-1.69.45-.3.9-.63,1.28-1.02.42-.42.78-.9,1.23-1.3.51-.44.45-1.31,0-1.77-.5-.5-1.26-.45-1.77,0-.43.38-.78.83-1.17,1.24-.36.38-.64.57-1.08.85-.9.58-1.85,1.11-2.56,1.92-.37.42-.49,1.01-.2,1.51.27.47.89.74,1.41.57,1.19-.37,2.16-1.23,3.33-1.6,1.24-.39,2.55-.49,3.68-1.18,1.24-.77,1.76-1.92,1.99-3.31.24-1.47.36-2.95.34-4.44-.02-1.61-2.53-1.61-2.5,0h0Z"/>
      <path class="cls-1" d="m234.72,208.11c-.08.8-.1,1.61.1,2.39s.65,1.48,1.24,2c1.29,1.1,2.92,1.39,4.58,1.41.65,0,1.28-.58,1.25-1.25s-.55-1.24-1.25-1.25c-.33,0-.66-.01-.99-.04-.05,0-.34,0-.13-.01s-.04,0-.09-.01c-.17-.03-.34-.06-.5-.11s-.33-.1-.49-.15c-.21-.07.21.1.07.03-.06-.03-.13-.06-.19-.09-.11-.06-.23-.12-.34-.19-.06-.04-.12-.08-.17-.12-.21-.14.22.2.03.02-.09-.09-.19-.17-.28-.27-.03-.04-.19-.24-.06-.06s0,0-.02-.04c-.08-.12-.13-.25-.2-.36.15.23.04.11,0,0-.03-.08-.05-.16-.07-.24-.02-.07-.03-.13-.04-.2-.02-.1-.01-.05.02.13,0-.04,0-.08-.01-.12-.01-.15-.02-.3-.02-.45,0-.33.03-.67.06-1,.03-.3-.16-.68-.37-.88-.22-.22-.57-.38-.88-.37-.73.03-1.18.55-1.25,1.25h0Z"/>
      <path class="cls-1" d="m239.95,213.14c-.68.05-1.33.13-1.9-.3-.53-.39-.96-.94-1.43-1.39s-.92-.87-1.15-1.47c-.25-.64-.26-1.33-.21-2.01h-2.5c.04,1,.02,2-.06,2.99-.07.94-.26,1.87,0,2.79.51,1.73,2.07,2.97,3.3,4.19l.55-2.09c.07-.01-.38-.28-.42-.31-.26-.19-.5-.41-.74-.62-.57-.5-1.11-1.02-1.63-1.57l-1.51,1.96c.86.38,1.74.67,2.67.84.75.14,1.68.09,2.38.42.49.23.83.83,1.16,1.27.56.74,1.19,1.31,2.08,1.63l.66-2.41c-.74-.21-1.5-.29-2.25-.45-.53-.11-1.1-.26-1.52-.61-.51-.44-1.27-.5-1.77,0-.45.45-.51,1.32,0,1.77.67.58,1.44.96,2.3,1.18s1.73.29,2.57.53c.65.18,1.36-.23,1.54-.87.19-.69-.23-1.31-.87-1.54-.42-.15-.77-.72-1.06-1.11-.52-.69-1.07-1.32-1.88-1.67-.76-.33-1.59-.35-2.4-.49s-1.61-.32-2.35-.64c-.57-.25-1.21-.21-1.61.32-.38.5-.34,1.18.1,1.64.69.73,1.42,1.42,2.2,2.06.92.76,1.78,1.27,3.01,1.08.96-.15,1.16-1.49.55-2.09s-1.18-1.14-1.74-1.73c-.4-.43-.85-.92-.96-1.5-.14-.74.1-1.62.15-2.37.05-.86.06-1.73.03-2.59-.02-.67-.56-1.25-1.25-1.25s-1.2.57-1.25,1.25c-.07.95.01,1.94.36,2.84.38.97,1,1.71,1.74,2.42.67.64,1.28,1.37,2.07,1.87.92.58,1.97.63,3.03.55.67-.05,1.25-.54,1.25-1.25,0-.64-.57-1.3-1.25-1.25h0Z"/>
      <path class="cls-1" d="m237.23,208.03s0-.08,0-.12l-.04.33s.01-.08.03-.11l-.13.3s.03-.07.05-.1l-.2.25s.05-.06.08-.09l-2.09-.55s.03.08.03.12l-.04-.33s0,.09,0,.13l.04-.33s-.02.08-.04.12l2.41.66c.03-.09.06-.18.09-.27l-.13.3c.08-.19.19-.37.32-.54l-.2.25c.16-.2.33-.37.53-.53l-.25.2c.21-.16.43-.28.67-.39l-.3.13c.38-.16.77-.26,1.17-.31l-.33.04c.32-.04.63-.05.95-.05.65,0,1.28-.58,1.25-1.25s-.55-1.24-1.25-1.25c-1.05,0-2.13.16-3.06.68s-1.6,1.34-1.88,2.32c-.18.63.22,1.39.87,1.54.32.07.68.06.96-.13s.44-.43.57-.75.12-.73.01-1.04c-.14-.42-.44-.75-.87-.87s-.9,0-1.22.32-.57.83-.52,1.3c.04.34.12.63.37.88.22.22.57.38.88.37s.66-.12.88-.37c.21-.23.4-.56.37-.88h0Z"/>
      <path class="cls-1" d="m234.63,204.75c-.65.26-1.26.59-1.9.86l.3-.13c-.33.14-.67.25-1.03.3l.33-.04c-.23.03-.46.04-.68,0l.33.04s-.08-.01-.12-.02c-.34-.06-.66-.05-.96.13-.26.15-.51.45-.57.75-.07.32-.06.68.13.96.17.26.43.52.75.57.8.14,1.59.07,2.35-.23.66-.26,1.28-.6,1.93-.88l-.3.13s.08-.03.12-.05c.31-.13.57-.27.75-.57.16-.27.22-.66.13-.96s-.29-.59-.57-.75-.66-.25-.96-.13h0Z"/>
      <path class="cls-1" d="m239.99,206.98c.08,0,.15.02.23.02.16.01-.25-.05-.01,0,.15.03.3.06.45.1.05.01.4.16.44.14-.04.02-.22-.11-.05-.01.08.05.16.09.24.14.12.07.06,0-.02-.02.06.02.14.12.18.16.12.11.22.24.33.36.1.11-.14-.21-.01-.02.04.06.08.12.12.18.08.12.15.24.22.37.03.06.06.13.1.19.07.15-.02,0-.02-.06.01.13.1.28.14.4.04.14.07.27.1.41,0,.04.05.29.02.09s0,.06,0,.09c.01.14.01.28,0,.42,0,.06,0,.11,0,.17-.01.29.06-.28,0,0-.02.12-.05.25-.08.37-.02.07-.04.13-.06.2-.07.24.11-.23,0,.01-.27.59-.19,1.37.45,1.71.55.29,1.42.18,1.71-.45.73-1.57.61-3.3-.19-4.81-.4-.76-.99-1.46-1.71-1.92-.76-.49-1.68-.65-2.56-.73-.65-.06-1.28.62-1.25,1.25.03.73.55,1.19,1.25,1.25h0Z"/>
      <path class="cls-1" d="m246.5,207.15c.2-.97-.27-1.84-1.14-2.3-.59-.31-1.22-.55-1.83-.83l-.63,2.33c1.85.12,3.69.24,5.54.35v-2.5l-.32.03c-.34.04-.63.12-.88.37-.22.22-.38.57-.37.88.03.62.55,1.32,1.25,1.25l.32-.03c.34-.04.63-.12.88-.37.22-.22.38-.57.37-.88-.03-.71-.55-1.21-1.25-1.25-1.85-.12-3.69-.24-5.54-.35-.52-.03-1.09.41-1.21.92s.06,1.18.57,1.41c.46.21.93.42,1.39.63.07.03.59.22.59.29l-.11-.09c.1.1.09.07-.03-.07.07.12.06.09-.02-.09-.03-.12-.03-.24,0-.36-.13.64.18,1.38.87,1.54.62.14,1.4-.19,1.54-.87h0Z"/>
      <path class="cls-1" d="m351.28,209.39c-1.07.04-2.15.1-3.09-.49-1.04-.65-2.05-1.23-3.17-1.73-.9-.4-1.79.08-1.88,1.08-.1,1.09.5,2.16,1.33,2.83.92.74,2.04,1.02,3.06,1.6l1.26-2.16c-.97-.41-2.03-.84-2.75-1.65-.66-.73-.83-1.72-.81-2.68.05-1.84.78-4.23,2.43-5.25,1.37-.85.11-3.01-1.26-2.16-2.43,1.5-3.6,4.65-3.67,7.41-.04,1.43.32,2.89,1.2,4.03s2.24,1.88,3.59,2.45c.62.26,1.34.19,1.71-.45.34-.58.14-1.38-.45-1.71-.76-.43-1.6-.67-2.36-1.11-.48-.28-.84-.62-.79-1.16l-1.88,1.08c.63.28,1.27.56,1.88.9.57.32,1.07.73,1.65,1.03,1.25.64,2.63.68,4,.62,1.6-.06,1.61-2.56,0-2.5h0Z"/>
      <path class="cls-1" d="m347.6,200.39c.05-.18.08-.3.2-.44,1.02-1.21-.64-2.95-1.77-1.77h-.01c.21-.06.42-.12.63-.17v.03c0,.8,0,1.61,0,2.41,1.23-.46,2.49-1.05,3.82-1.13s2.52.17,3.74.5c2.68.73,5.32,1.62,7.97,2.44,1.54.48,2.2-1.94.66-2.41-2.84-.88-5.67-1.89-8.55-2.59-1.34-.33-2.74-.55-4.12-.42-1.48.13-2.82.69-4.19,1.2-1.07.4-1.3,2.12,0,2.41.68.15,1.31.01,1.81-.5l-1.77-1.77c-.4.47-.68.94-.84,1.54-.42,1.56,1.99,2.22,2.41.66h0Z"/>
      <path class="cls-1" d="m361.31,200.81c.05,1.95.1,3.92-.1,5.86-.07.72-.15,1.56-.56,2.18-.44.65-1.23,1.08-1.87,1.5-.73.48-1.48.96-2.28,1.3s-1.71.56-2.57.79-1.64.42-2.49.17-1.52-.75-2.21-1.22v2.16c1.24-.81,2.69-1.04,4.11-1.34s2.98-.74,4.22-1.65c2.72-1.99,3.9-5.18,4.72-8.32h-2.41c.16,1.16.32,2.4.12,3.56-.19,1.09-.74,1.93-1.55,2.67-.9.81-1.99,1.45-3.07,1.98-.56.27-1.13.51-1.72.7-.3.1-.61.19-.92.26-.15.03-.61.02-.73.11-.06-.02-.11,0-.15.02.16.32.28.41.35.27-.03.01.13-.64.14-.66.2-.44.54-.8.89-1.13.83-.77,1.83-1.31,2.67-2.08.95-.87,1.51-1.97,1.95-3.17.5-1.35.94-2.72,1.41-4.08l-1.84.75c1.69.99-.07,3.52-.77,4.55-.59.86-1.26,1.67-1.99,2.43-.68.71-1.38,1.44-2.37,1.65-1.57.33-.91,2.74.66,2.41,1.41-.29,2.51-1.28,3.48-2.29,1.04-1.09,1.98-2.28,2.79-3.55.75-1.18,1.44-2.57,1.37-4.01-.06-1.36-.71-2.64-1.91-3.34-.73-.43-1.58,0-1.84.75-.44,1.29-.87,2.58-1.33,3.86-.39,1.08-.9,1.93-1.81,2.64-1.72,1.36-3.78,2.55-3.99,4.97-.11,1.2.54,2.37,1.82,2.5,1.2.12,2.47-.29,3.57-.73,2.12-.83,4.38-2.04,5.85-3.83,1.89-2.29,1.7-5.1,1.32-7.87-.17-1.27-2.12-1.11-2.41,0-.69,2.64-1.62,5.68-4.1,7.18-1.13.69-2.47.91-3.74,1.17-1.42.29-2.84.66-4.06,1.46-.81.53-.79,1.62,0,2.16.85.57,1.72,1.12,2.7,1.44,1.09.35,2.21.26,3.31.02,2.19-.49,4.2-1.24,6.07-2.49.83-.55,1.74-1.1,2.38-1.88s.99-1.76,1.14-2.77c.36-2.33.31-4.7.25-7.05-.04-1.61-2.54-1.61-2.5,0h0Z"/>
      <path class="cls-1" d="m347.73,203.08c-.65,1.98.51,4.14,2.28,5.08s4.24,1.13,5.96.08c.56-.34.82-1.13.45-1.71s-1.11-.81-1.71-.45c-.09.06-.18.1-.27.15.15-.08.08-.03-.04.01-.17.06-.34.1-.51.13-.13.02-.21.02-.03,0-.11,0-.21.02-.32.02-.17,0-.35,0-.52,0-.16,0-.37.01-.52-.04.27.09,0,0-.08-.01-.08-.02-.17-.03-.25-.05-.17-.04-.33-.08-.49-.14-.08-.03-.16-.06-.24-.09.27.09-.03-.02-.07-.04-.15-.08-.29-.17-.44-.26-.27-.16.1.1-.03-.02-.06-.05-.12-.1-.18-.16-.07-.07-.13-.14-.2-.2-.16-.17.07.12-.01,0-.09-.13-.18-.26-.25-.4-.04-.07-.08-.14-.1-.21.1.31,0-.01,0-.06-.02-.07-.04-.15-.06-.23-.06-.26.03-.03,0,0,.03-.03-.01-.39,0-.46,0-.29-.07.24,0-.04.03-.09.05-.18.08-.27.21-.62-.24-1.39-.87-1.54-.69-.16-1.32.21-1.54.87h0Z"/>
      <path class="cls-1" d="m350.3,201.87c.07.63-.19.99-.77,1.07l-1.21-1.58c-.13.39-.27.78-.41,1.17-.21.59.19,1.25.72,1.47s1.31.06,1.56-.51c.1-.23.22-.45.37-.66-.13.17.03-.03.08-.08.07-.08.16-.15.23-.23.24-.23-.19.11.09-.07.09-.06.18-.12.28-.17.04-.02.37-.18.24-.13-.14.06.17-.06.21-.07.13-.04.25-.07.38-.09-.22.04.09,0,.15,0,.12,0,.24,0,.36,0,.06,0,.36.05.15.01.14.03.28.06.41.1.04.01.35.12.25.08-.07-.03-.05-.02.07.03.07.04.14.07.21.11.11.06.21.12.31.19.29.2-.13-.14.12.1.08.08.16.16.25.24.19.18-.03-.1.09.11.04.06.08.13.12.2.06.11.07.14.04.07-.02-.06.08.27.09.33.01.05.07.4.04.16.04.26.05.53.07.79.08,1.24.09,2.49.04,3.74-.03.65.6,1.28,1.25,1.25.7-.03,1.22-.55,1.25-1.25.06-1.46.06-2.94-.09-4.4-.08-.75-.22-1.5-.64-2.14-.4-.61-.94-1.1-1.56-1.48-2.4-1.44-5.85-.64-7.02,2.02l2.28.96c.14-.39.27-.78.41-1.17.27-.8-.44-1.55-1.21-1.58-1.14-.05-1.85,1.05-1.64,2.09.13.64.92,1.07,1.54.87.68-.22,1.01-.85.87-1.54h0Z"/>
      <path class="cls-1" d="m358.76,200.54c-1.11-1.19-2.66-1.77-4.24-1.99-1.74-.25-3.63-.34-5.32.19-.83.26-1.7.66-2.28,1.33-.63.74-.81,1.69-.85,2.64-.08,1.54.32,3.08,1.03,4.44.81,1.55,2.11,2.87,3.67,3.66l.96-2.28c-.61-.2-1.09-.74-1.68-1.01-.64-.29-1.55-.24-2.08-.71-1.14-1.01-.52-2.94-.19-4.17.42-1.56-1.99-2.22-2.41-.66-.58,2.14-.96,4.53.61,6.36.71.82,1.6,1.11,2.63,1.32.43.09.76.35,1.12.6.42.29.85.53,1.34.69,1.34.44,2.23-1.64.96-2.28s-2.27-1.69-2.88-2.99c-.26-.55-.45-1.17-.54-1.78s-.15-1.42.08-1.98c.25-.62,1.29-.82,1.86-.93.81-.16,1.67-.13,2.49-.08,1.42.08,2.95.33,3.96,1.41,1.1,1.18,2.86-.59,1.77-1.77h0Z"/>
      <path class="cls-1" d="m220.75,205.12c-1.07-.02-2.27.27-3.27-.22-.18-.09-.41-.05-.51.13-.1.17-.05.42.13.51,1.16.57,2.41.3,3.65.32.48,0,.48-.74,0-.75h0Z"/>
      <path class="cls-1" d="m220.96,205.73c-1.44-.21-2.93.05-4.35-.35l.06.46c.15-.09.27-.21.34-.37.14-.29-.29-.54-.43-.25-.04.09-.08.14-.16.19-.18.11-.15.4.06.46,1.42.4,2.9.14,4.35.35.31.05.45-.44.13-.48h0Z"/>
      <path class="cls-1" d="m216.57,205.08c-.29.24-.59.45-.92.63-.22.12-.12.47.13.47,1.03,0,2.06.04,3.08.11.32.02.32-.48,0-.5-1.03-.07-2.05-.11-3.08-.11l.13.47c.36-.2.7-.44,1.02-.71.25-.21-.11-.56-.35-.35h0Z"/>
      <path class="cls-1" d="m216.9,204.77c-.35.04-.64.29-.94.46s-.6.35-.91.51c-.1.05-.14.18-.11.28.03.11.13.17.24.18.19.02.38.06.56.13.13.04.27-.05.31-.17.04-.14-.05-.26-.17-.31-.23-.08-.46-.12-.7-.15l.13.47c.29-.15.58-.31.86-.48.14-.08.28-.17.42-.26.06-.04.12-.08.18-.11.02,0,.03-.02.05-.03.03-.01.03-.02.02,0,.02,0,.04-.01.05-.02.03,0,.04,0,.02,0,.13-.01.25-.11.25-.25,0-.12-.11-.26-.25-.25h0Z"/>
      <path class="cls-1" d="m220.64,206.36c-3.3.26-6.6-.65-9.31-2.55-.26-.19-.51.25-.25.43,2.78,1.95,6.19,2.88,9.57,2.62.32-.02.32-.52,0-.5h0Z"/>
      <path class="cls-1" d="m220.65,206.75c-3.97.35-7.92,1.15-11.92.83-.32-.03-.32.47,0,.5,4,.32,7.95-.48,11.92-.83.32-.03.32-.53,0-.5h0Z"/>
      <path class="cls-1" d="m217.45,207.57c-1.61-.06-3.13.56-4.69.86-1.65.31-3.33.41-5,.33-.32-.02-.32.48,0,.5,1.6.09,3.2,0,4.78-.28s3.24-.97,4.92-.91c.32.01.32-.49,0-.5h0Z"/>
      <path class="cls-1" d="m215.99,208.23c-3.24,1.36-6.68,2.2-10.19,2.47-.32.02-.32.52,0,.5,3.55-.27,7.04-1.11,10.33-2.49.29-.12.16-.61-.13-.48h0Z"/>
      <path class="cls-1" d="m214.06,210.02l-7.24,2.34c-.3.1-.17.58.13.48l7.24-2.34c.3-.1.17-.58-.13-.48h0Z"/>
      <path class="cls-1" d="m210.7,212.13h-2.09c-.32,0-.32.5,0,.5h2.09c.32,0,.32-.5,0-.5h0Z"/>
      <path class="cls-1" d="m218.55,207.08c-2.01.16-4.03-.08-5.95-.7-.31-.1-.44.38-.13.48,1.96.64,4.03.88,6.08.72.32-.03.32-.53,0-.5h0Z"/>
      <path class="cls-1" d="m220.98,205.89c-.3-.01-.6-.02-.89,0s-.56.12-.84.17-.57.06-.86.08c-.14,0-.28.02-.42.03-.07,0-.14,0-.21.01-.04,0-.08,0-.12,0-.09-.01-.08.05.01.17.14-.29-.29-.54-.43-.25-.16.33.12.59.45.58.38-.01.76-.05,1.14-.08.35-.03.68-.09,1.02-.17.38-.09.77-.07,1.16-.06.32.01.32-.49,0-.5h0Z"/>
      <path class="cls-1" d="m318.82,68.21c14.7.05,29.12,3.97,42.15,10.71s24.91,16.32,34.85,27.31c10.42,11.52,18.72,24.68,25.2,38.77,7.34,15.97,12.41,32.89,16.23,50.02s6.45,34.64,8.89,52.07c.3,2.14.6,4.27.89,6.41.11.79,1.31.46,1.21-.33-2.46-17.74-4.96-35.49-8.61-53.02-3.6-17.31-8.35-34.42-15.29-50.71-6.22-14.61-14.24-28.37-24.51-40.52-9.66-11.42-21.15-21.43-34.16-28.86-12.62-7.22-26.71-11.92-41.26-12.9-1.86-.12-3.72-.18-5.59-.19-.8,0-.81,1.25,0,1.25h0Z"/>
      <path class="cls-1" d="m449.06,165.88c10.36,21.05,14.68,44.55,14.98,67.89.31,24.73-3.91,49.25-9.69,73.22-3.34,13.87-7.22,27.61-11.09,41.35-.22.78.99,1.11,1.21.33,6.99-24.79,14-49.67,17.86-75.18,3.55-23.47,4.33-47.51,0-70.93-2.39-12.91-6.38-25.51-12.18-37.3-.36-.72-1.43-.09-1.08.63h0Z"/>
      <path class="cls-1" d="m431.76,275.21c1.02,17.81-.69,35.75-5.11,53.04-1.26,4.92-2.73,9.78-4.41,14.57-.27.76.94,1.09,1.21.33,5.91-16.87,9.22-34.62,9.77-52.48.16-5.15.08-10.31-.21-15.46-.05-.8-1.3-.81-1.25,0h0Z"/>
      <path class="cls-1" d="m275.27,17.91c-23.12-1.55-44.73,8.87-63.65,21.1-5.48,3.54-10.83,7.27-16.19,10.99-.66.46-.03,1.54.63,1.08,18.49-12.86,37.69-26.14,60.19-30.62,6.26-1.24,12.64-1.73,19.01-1.3.8.05.8-1.2,0-1.25h0Z"/>
      <path class="cls-1" d="m286.97,59.82c-6.59-11.31-17.94-19.56-30.64-22.61-3.58-.86-7.26-1.29-10.94-1.3-.8,0-.81,1.25,0,1.25,16.39,0,32.25,9.13,40.5,23.29.4.69,1.49.07,1.08-.63h0Z"/>
      <path class="cls-1" d="m311.9,38.26c14.55,12.62,33.08,18.8,50.99,24.97,16.85,5.81,33.97,12.17,47.62,24.03,7.31,6.36,13.26,14.23,16.41,23.46.26.76,1.47.43,1.21-.33-5.61-16.47-19.5-28-34.44-35.94-16.67-8.85-35.13-13.32-52.51-20.47-10.18-4.18-20.04-9.37-28.39-16.61-.61-.52-1.49.36-.88.88h0Z"/>
      <path class="cls-1" d="m318.98,16.73c18.14,1,37.16,2.12,53.23,11.49,4.08,2.37,7.83,5.25,11.11,8.63.56.58,1.44-.31.88-.88-12.56-12.94-30.72-17.53-48.09-19.28-5.7-.58-11.42-.89-17.14-1.21-.8-.04-.8,1.21,0,1.25h0Z"/>
      <path class="cls-1" d="m349.84,36.29c10.52-1.2,20.46,3.39,28.83,9.38s15.41,13.67,23.36,20.21c4.37,3.59,9.03,6.84,14.16,9.25.72.34,1.36-.74.63-1.08-19.08-8.96-30.49-28.81-50.34-36.59-5.29-2.07-10.97-3.06-16.64-2.42-.79.09-.8,1.34,0,1.25h0Z"/>
      <path class="cls-1" d="m441.02,116.92c-1.22,4.99,1.35,9.68,4.16,13.63,3.17,4.46,6.62,8.72,9.95,13.06,6.56,8.55,12.92,17.47,16.68,27.67,2.05,5.57,3.26,11.42,3.22,17.36,0,.8,1.24.81,1.25,0,.16-21.61-14.85-38.64-27.15-54.85-3.49-4.6-8.42-10.31-6.9-16.54.19-.78-1.01-1.11-1.21-.33h0Z"/>
      <path class="cls-1" d="m478.43,280.15c1.79,30.71-8.42,60.38-9.76,90.88-.37,8.35,0,16.73,1.4,24.98.13.79,1.34.46,1.21-.33-5.14-30.19,4.32-60.16,7.56-90.01.92-8.47,1.34-17,.85-25.52-.05-.8-1.3-.8-1.25,0h0Z"/>
      <path class="cls-1" d="m182.02,65.83c-6.38,9.42-11.7,19.5-15.91,30.07-.3.75.91,1.07,1.21.33,4.17-10.46,9.47-20.44,15.79-29.77.45-.67-.63-1.29-1.08-.63h0Z"/>
    </g>
  </g>
</svg>